<svg xmlns="http://www.w3.org/2000/svg" viewBox="0 0 272.18 92.16">
  <path d="M115.75 47.18c0 12.77-9.99 22.18-22.25 22.18s-22.25-9.41-22.25-22.18C71.25 34.32 81.24 25 93.5 25s22.25 9.32 22.25 22.18zM163.75 47.18c0 12.77-9.99 22.18-22.25 22.18s-22.25-9.41-22.25-22.18c0-12.85 9.99-22.18 22.25-22.18s22.25 9.32 22.25 22.18z" fill="#ea4335"/>
  <path d="M115.75 47.18c0-12.77-9.99-22.18-22.25-22.18s-22.25 9.41-22.25 22.18C71.25 59.94 81.24 69.36 93.5 69.36s22.25-9.42 22.25-22.18z" fill="#4285f4"/>
  <path d="M163.75 47.18c0-12.77-9.99-22.18-22.25-22.18s-22.25 9.41-22.25 22.18c0 12.77 9.99 22.18 22.25 22.18s22.25-9.41 22.25-22.18z" fill="#34a853"/>
  <path d="M139.75 16.45v12.51h-23.8l-.23-.68c-4.47-13.23-16.38-22.18-30.2-22.18C71.24 6.1 58.29 18.5 58.29 34.23c0 15.73 12.95 28.13 28.02 28.13 8.31 0 15.88-3.55 21.23-9.24l10.48 10.48c-8.54 7.98-19.63 12.7-31.71 12.7-25.35 0-45.89-20.54-45.89-45.89S60.48 3.72 85.83 3.72c19.49 0 35.02 9.97 41.18 24.61l12.74-11.88z" fill="#fbbc05"/>
</svg> 