<svg xmlns="http://www.w3.org/2000/svg" viewBox="0 0 448 512">
  <path fill="#ff9900" d="M257.2 162.7c-48.7 1.8-169.5 15.5-169.5 117.5 0 109.5 138.3 114.8 164.9 115.2 26.3.4 140.3-25.8 140.3-134.8 0-89.8-80.5-96.9-135.7-97.9zM406.2 335.7c-10.4 0-19.9-1.1-28.3-3.2-8.4-2.1-16.1-5.2-23.1-9.3-7-4.1-13.1-9.2-18.3-15.3-5.2-6.1-9.5-13.2-12.9-21.3-3.4-8.1-5.1-17.2-5.1-27.3 0-10.1 1.7-19.2 5.1-27.3 3.4-8.1 7.7-15.2 12.9-21.3 5.2-6.1 11.3-11.2 18.3-15.3 7-4.1 14.7-7.2 23.1-9.3 8.4-2.1 17.9-3.2 28.3-3.2 10.4 0 19.9 1.1 28.3 3.2 8.4 2.1 16.1 5.2 23.1 9.3 7 4.1 13.1 9.2 18.3 15.3 5.2 6.1 9.5 13.2 12.9 21.3 3.4 8.1 5.1 17.2 5.1 27.3 0 10.1-1.7 19.2-5.1 27.3-3.4 8.1-7.7 15.2-12.9 21.3-5.2 6.1-11.3 11.2-18.3 15.3-7 4.1-14.7 7.2-23.1 9.3-8.4 2.1-17.9 3.2-28.3 3.2z"/>
</svg> 